<svg xmlns="http://www.w3.org/2000/svg" xmlns:xlink="http://www.w3.org/1999/xlink" width="500" zoomAndPan="magnify" viewBox="0 0 375 149.999998" height="200" preserveAspectRatio="xMidYMid meet" version="1.0"><defs><g/></defs><path fill="#6d92f4" d="M 131.53125 54.609375 L 133.640625 54.609375 L 135.078125 54.695312 L 136.367188 54.84375 L 137.507812 55.019531 L 138.679688 55.253906 L 139.96875 55.574219 L 141.023438 55.898438 L 142.050781 56.25 L 142.871094 56.570312 L 143.75 56.953125 L 144.746094 57.421875 L 145.566406 57.859375 L 146.269531 58.269531 L 146.941406 58.679688 L 147.585938 59.121094 L 148.171875 59.53125 L 148.699219 59.941406 L 149.082031 60.261719 L 149.492188 60.613281 L 149.726562 60.820312 L 150.3125 61.347656 L 150.75 61.757812 L 151.074219 62.078125 L 151.277344 62.3125 L 151.484375 62.519531 L 151.746094 62.839844 L 152.070312 63.191406 L 152.449219 63.691406 L 152.683594 63.984375 L 153.066406 64.511719 L 153.535156 65.214844 L 153.945312 65.886719 L 154.355469 66.621094 L 154.792969 67.5 L 155.203125 68.464844 L 155.4375 69.082031 L 155.703125 69.902344 L 155.90625 70.632812 L 156.113281 71.542969 L 156.289062 72.625 L 156.375 73.417969 L 156.433594 74.238281 L 156.433594 90.144531 L 156.347656 90.820312 L 156.199219 91.40625 L 155.996094 91.960938 L 155.761719 92.429688 L 155.527344 92.839844 L 155.175781 93.308594 L 154.824219 93.71875 L 154.707031 93.777344 L 154.675781 93.867188 L 154.355469 94.128906 L 153.886719 94.480469 L 153.386719 94.773438 L 152.773438 95.039062 L 152.097656 95.242188 L 151.425781 95.359375 L 151.042969 95.390625 L 150.457031 95.390625 L 149.726562 95.300781 L 149.050781 95.125 L 148.378906 94.863281 L 147.792969 94.539062 L 147.382812 94.246094 L 147 93.925781 L 146.503906 93.425781 L 146.121094 92.929688 L 145.769531 92.34375 L 145.476562 91.667969 L 145.300781 91.082031 L 145.183594 90.46875 L 145.15625 90.117188 L 145.125 67.265625 L 144.304688 66.941406 L 143.398438 66.648438 L 142.402344 66.386719 L 141.550781 66.210938 L 140.613281 66.0625 L 139.824219 65.976562 L 138.769531 65.917969 L 128.601562 65.917969 L 127.722656 66.003906 L 126.875 66.179688 L 126.171875 66.386719 L 125.4375 66.679688 L 124.824219 66.972656 L 124.324219 67.265625 L 123.972656 67.5 L 123.417969 67.910156 L 123.125 68.171875 L 122.890625 68.378906 L 122.332031 68.933594 L 122.070312 69.257812 L 121.6875 69.753906 L 121.308594 70.339844 L 121.042969 70.808594 L 120.722656 71.511719 L 120.515625 72.039062 L 120.253906 72.949219 L 120.136719 73.5625 L 120.046875 74.414062 L 120.019531 89.96875 L 119.960938 90.585938 L 119.84375 91.140625 L 119.667969 91.726562 L 119.433594 92.253906 L 119.199219 92.695312 L 118.847656 93.191406 L 118.582031 93.515625 L 118.085938 94.011719 L 117.675781 94.335938 L 117.058594 94.714844 L 116.503906 94.980469 L 115.800781 95.214844 L 115.214844 95.332031 L 114.65625 95.390625 L 114.070312 95.390625 L 113.484375 95.332031 L 112.839844 95.183594 L 112.226562 94.980469 L 111.667969 94.714844 L 111.113281 94.363281 L 110.789062 94.101562 L 110.378906 93.75 L 110.058594 93.398438 L 109.707031 92.929688 L 109.414062 92.460938 L 109.121094 91.84375 L 108.914062 91.230469 L 108.769531 90.496094 L 108.738281 90.261719 L 108.710938 88.828125 L 108.738281 74.003906 L 108.828125 72.976562 L 108.972656 71.980469 L 109.207031 70.839844 L 109.441406 69.960938 L 109.792969 68.90625 L 110.117188 68.085938 L 110.378906 67.5 L 110.730469 66.765625 L 110.996094 66.296875 L 111.171875 65.976562 L 111.492188 65.417969 L 112.019531 64.628906 L 112.402344 64.101562 L 112.839844 63.515625 L 113.191406 63.105469 L 113.457031 62.78125 L 113.894531 62.3125 L 114.101562 62.078125 L 114.980469 61.199219 L 115.214844 60.996094 L 115.566406 60.671875 L 115.886719 60.410156 L 116.269531 60.085938 L 116.648438 59.792969 L 117.207031 59.382812 L 117.703125 59.03125 L 118.378906 58.59375 L 118.992188 58.210938 L 120.019531 57.625 L 120.488281 57.390625 L 121.394531 56.953125 L 122.363281 56.542969 L 123.359375 56.160156 L 124.414062 55.808594 L 125.410156 55.515625 L 126.609375 55.222656 L 127.8125 54.988281 L 128.984375 54.8125 L 130.066406 54.695312 L 130.886719 54.636719 Z M 121.511719 67.703125 L 121.542969 67.761719 Z M 121.160156 68.582031 L 121.191406 68.640625 Z M 121.101562 68.730469 L 121.132812 68.789062 Z M 121.042969 68.90625 L 121.074219 68.964844 Z M 120.957031 69.140625 L 120.984375 69.199219 Z M 120.925781 69.226562 L 120.957031 69.285156 Z M 120.839844 69.492188 L 120.867188 69.550781 Z M 120.808594 69.609375 L 120.839844 69.667969 Z M 120.78125 69.695312 L 120.808594 69.753906 Z M 120.722656 69.902344 L 120.75 69.960938 Z M 120.691406 70.019531 L 120.722656 70.078125 Z M 120.632812 70.3125 L 120.664062 70.371094 Z M 120.605469 70.429688 L 120.632812 70.488281 Z M 151.777344 71.894531 L 151.777344 71.953125 L 151.835938 71.921875 Z M 151.835938 71.953125 L 151.863281 72.011719 Z M 154.179688 75.261719 L 154.207031 75.320312 Z M 154.238281 75.378906 L 154.265625 75.4375 Z M 154.472656 75.820312 L 154.5 75.878906 Z M 154.53125 75.9375 L 154.558594 75.996094 Z M 154.589844 76.054688 L 154.617188 76.113281 Z M 154.792969 76.492188 L 154.824219 76.550781 Z M 154.882812 76.667969 L 154.910156 76.726562 Z M 154.910156 76.757812 L 154.941406 76.816406 Z M 154.941406 76.816406 L 154.96875 76.875 Z M 154.96875 76.875 L 155 76.933594 Z M 155 76.933594 L 155.027344 77.019531 Z M 155.058594 77.078125 L 155.085938 77.136719 Z M 155.117188 77.226562 L 155.144531 77.285156 Z M 155.203125 77.460938 L 155.234375 77.519531 Z M 155.234375 77.519531 L 155.261719 77.578125 Z M 155.261719 77.605469 L 155.292969 77.664062 Z M 155.292969 77.664062 L 155.320312 77.722656 Z M 155.351562 77.839844 L 155.378906 77.898438 Z M 155.46875 78.164062 L 155.496094 78.222656 Z M 155.496094 78.25 L 155.527344 78.308594 Z M 155.527344 78.339844 L 155.554688 78.398438 Z M 155.554688 78.425781 L 155.585938 78.484375 Z M 155.585938 78.515625 L 155.613281 78.574219 Z M 155.613281 78.601562 L 155.644531 78.660156 Z M 155.644531 78.691406 L 155.671875 78.777344 Z M 155.671875 78.808594 L 155.703125 78.867188 Z M 155.703125 78.894531 L 155.730469 78.953125 Z M 155.730469 78.984375 L 155.761719 79.042969 Z M 155.761719 79.070312 L 155.789062 79.128906 Z M 155.820312 79.304688 L 155.847656 79.363281 Z M 155.878906 79.539062 L 155.90625 79.597656 Z M 155.90625 79.65625 L 155.9375 79.714844 Z M 155.9375 79.746094 L 155.964844 79.832031 Z M 155.964844 79.890625 L 155.996094 79.949219 Z M 155.996094 79.980469 L 156.023438 80.066406 Z M 156.023438 80.125 L 156.054688 80.214844 Z M 156.054688 80.273438 L 156.082031 80.332031 Z M 156.113281 80.566406 L 156.140625 80.625 Z M 156.140625 80.683594 L 156.171875 80.742188 Z M 156.140625 80.683594 " fill-opacity="1" fill-rule="nonzero"/><path fill="#92b0fd" d="M 131.53125 54.609375 L 133.640625 54.609375 L 135.078125 54.695312 L 136.367188 54.84375 L 137.507812 55.019531 L 138.679688 55.253906 L 139.96875 55.574219 L 141.023438 55.898438 L 142.050781 56.25 L 142.871094 56.570312 L 143.75 56.953125 L 144.746094 57.421875 L 145.566406 57.859375 L 146.269531 58.269531 L 146.941406 58.679688 L 147.585938 59.121094 L 148.171875 59.53125 L 148.699219 59.941406 L 149.082031 60.261719 L 149.285156 60.4375 L 149.199219 60.46875 L 148.816406 60.175781 L 148.496094 59.96875 L 148.378906 59.882812 L 148.113281 59.734375 L 147.558594 59.414062 L 146.824219 59.003906 L 146.269531 58.710938 L 145.476562 58.328125 L 144.6875 58.007812 L 143.867188 57.714844 L 143.074219 57.480469 L 142.109375 57.246094 L 140.996094 57.039062 L 139.824219 56.894531 L 139.089844 56.835938 L 137.507812 56.835938 L 136.660156 56.894531 L 135.515625 57.039062 L 134.8125 57.15625 L 134.667969 57.15625 L 134.667969 57.1875 L 134.257812 57.273438 L 134.109375 57.304688 L 133.085938 57.566406 L 131.914062 57.949219 L 131.472656 58.125 L 131.238281 58.210938 L 130.390625 58.59375 L 129.746094 58.914062 L 129.070312 59.296875 L 128.71875 59.5 L 127.839844 60.085938 L 127.429688 60.378906 L 127.050781 60.671875 L 126.582031 61.054688 L 126.347656 61.257812 L 125.996094 61.582031 L 125.761719 61.785156 L 125.378906 62.136719 L 124.96875 62.578125 L 124.792969 62.78125 L 124.675781 62.839844 L 124.558594 63.046875 L 124.355469 63.25 L 124.03125 63.660156 L 123.679688 64.101562 L 123.328125 64.597656 L 123.125 64.890625 L 122.800781 65.390625 L 122.539062 65.828125 L 122.246094 66.355469 L 122.070312 66.679688 L 121.804688 67.175781 L 121.746094 67.351562 L 121.628906 67.558594 L 121.542969 67.820312 L 121.425781 68.027344 L 121.335938 68.320312 L 121.21875 68.613281 L 121.160156 68.699219 L 121.101562 68.933594 L 120.867188 69.636719 L 120.808594 69.753906 L 120.78125 69.929688 L 120.722656 70.046875 L 120.664062 70.339844 L 120.605469 70.457031 L 120.574219 70.691406 L 120.429688 71.308594 L 120.222656 72.507812 L 120.136719 73.152344 L 120.136719 73.5625 L 120.046875 74.414062 L 120.019531 89.96875 L 119.960938 90.585938 L 119.84375 91.140625 L 119.667969 91.726562 L 119.433594 92.253906 L 119.199219 92.695312 L 118.847656 93.191406 L 118.582031 93.515625 L 118.085938 94.011719 L 117.675781 94.335938 L 117.058594 94.714844 L 116.503906 94.980469 L 115.800781 95.214844 L 115.214844 95.332031 L 114.65625 95.390625 L 114.070312 95.390625 L 113.484375 95.332031 L 112.839844 95.183594 L 112.226562 94.980469 L 111.667969 94.714844 L 111.113281 94.363281 L 110.789062 94.101562 L 110.378906 93.75 L 110.058594 93.398438 L 109.707031 92.929688 L 109.414062 92.460938 L 109.121094 91.84375 L 108.914062 91.230469 L 108.769531 90.496094 L 108.738281 90.261719 L 108.710938 88.828125 L 108.738281 74.003906 L 108.828125 72.976562 L 108.972656 71.980469 L 109.207031 70.839844 L 109.441406 69.960938 L 109.792969 68.90625 L 110.117188 68.085938 L 110.378906 67.5 L 110.730469 66.765625 L 110.996094 66.296875 L 111.171875 65.976562 L 111.492188 65.417969 L 112.019531 64.628906 L 112.402344 64.101562 L 112.839844 63.515625 L 113.191406 63.105469 L 113.457031 62.78125 L 113.894531 62.3125 L 114.101562 62.078125 L 114.980469 61.199219 L 115.214844 60.996094 L 115.566406 60.671875 L 115.886719 60.410156 L 116.269531 60.085938 L 116.648438 59.792969 L 117.207031 59.382812 L 117.703125 59.03125 L 118.378906 58.59375 L 118.992188 58.210938 L 120.019531 57.625 L 120.488281 57.390625 L 121.394531 56.953125 L 122.363281 56.542969 L 123.359375 56.160156 L 124.414062 55.808594 L 125.410156 55.515625 L 126.609375 55.222656 L 127.8125 54.988281 L 128.984375 54.8125 L 130.066406 54.695312 L 130.886719 54.636719 Z M 120.957031 69.140625 L 120.984375 69.199219 Z M 120.925781 69.226562 L 120.957031 69.285156 Z M 120.839844 69.492188 L 120.867188 69.550781 Z M 120.839844 69.492188 " fill-opacity="1" fill-rule="nonzero"/><path fill="#6d92f4" d="M 131.882812 69.988281 L 132.996094 69.988281 L 133.699219 70.105469 L 134.316406 70.28125 L 134.929688 70.546875 L 135.457031 70.839844 L 135.898438 71.160156 L 136.277344 71.484375 L 136.71875 71.921875 L 137.097656 72.421875 L 137.363281 72.859375 L 137.597656 73.300781 L 137.832031 73.914062 L 138.007812 74.648438 L 138.066406 75.175781 L 138.09375 76.023438 L 138.09375 89.382812 L 138.066406 90.234375 L 138.007812 90.730469 L 137.859375 91.347656 L 137.625 91.992188 L 137.332031 92.578125 L 136.980469 93.105469 L 136.660156 93.484375 L 136.335938 93.835938 L 136.015625 94.128906 L 135.515625 94.480469 L 135.019531 94.773438 L 134.492188 95.007812 L 133.964844 95.183594 L 133.289062 95.332031 L 132.734375 95.390625 L 132.148438 95.390625 L 131.53125 95.332031 L 130.800781 95.15625 L 130.15625 94.921875 L 129.539062 94.597656 L 129.1875 94.363281 L 128.777344 94.042969 L 128.308594 93.601562 L 128.105469 93.367188 L 127.753906 92.898438 L 127.519531 92.519531 L 127.285156 92.078125 L 127.050781 91.464844 L 126.902344 90.90625 L 126.816406 90.351562 L 126.785156 90 L 126.785156 75.378906 L 126.84375 74.765625 L 126.992188 74.089844 L 127.195312 73.503906 L 127.519531 72.832031 L 127.722656 72.507812 L 128.074219 72.039062 L 128.339844 71.746094 L 128.457031 71.601562 L 128.691406 71.394531 L 129.042969 71.101562 L 129.421875 70.839844 L 129.890625 70.574219 L 130.332031 70.371094 L 131.035156 70.136719 L 131.648438 70.019531 Z M 131.882812 69.988281 " fill-opacity="1" fill-rule="nonzero"/><path fill="#4771dd" d="M 145.15625 67.324219 L 145.449219 67.410156 L 146.296875 67.792969 L 146.855469 68.085938 L 147.324219 68.347656 L 147.410156 68.378906 L 147.410156 68.4375 L 147.558594 68.496094 L 147.851562 68.671875 L 147.9375 68.699219 L 147.9375 68.757812 L 148.054688 68.789062 L 148.261719 68.933594 L 148.347656 68.964844 L 148.347656 69.023438 L 148.496094 69.082031 L 148.640625 69.167969 L 148.757812 69.285156 L 149.050781 69.460938 L 149.050781 69.519531 L 149.167969 69.550781 L 149.167969 69.609375 L 149.285156 69.636719 L 149.433594 69.785156 L 149.578125 69.871094 L 149.609375 69.929688 L 149.753906 70.019531 L 149.753906 70.078125 L 149.871094 70.105469 L 150.019531 70.253906 L 150.28125 70.457031 L 150.429688 70.632812 L 150.574219 70.722656 L 151.746094 71.894531 L 151.746094 71.953125 L 151.804688 71.953125 L 151.980469 72.15625 L 152.070312 72.304688 L 152.128906 72.332031 L 152.1875 72.449219 L 152.273438 72.539062 L 152.273438 72.597656 L 152.390625 72.65625 L 152.421875 72.773438 L 152.507812 72.800781 L 152.539062 72.890625 L 152.714844 73.066406 L 152.742188 73.152344 L 152.800781 73.183594 L 152.832031 73.269531 L 152.976562 73.417969 L 153.035156 73.59375 L 153.09375 73.59375 L 153.125 73.710938 L 153.183594 73.710938 L 153.328125 73.972656 L 153.359375 74.0625 L 153.417969 74.0625 L 153.476562 74.238281 L 153.535156 74.238281 L 153.652344 74.441406 L 153.886719 74.824219 L 154.0625 75.144531 L 154.089844 75.261719 L 154.148438 75.261719 L 154.589844 76.140625 L 154.824219 76.640625 L 154.96875 76.933594 L 155.144531 77.402344 L 155.292969 77.78125 L 155.644531 78.835938 L 155.878906 79.6875 L 156.054688 80.417969 L 156.316406 81.882812 L 156.347656 82.234375 L 156.40625 82.234375 L 156.433594 84.578125 L 156.433594 90.144531 L 156.347656 90.820312 L 156.199219 91.40625 L 155.996094 91.960938 L 155.761719 92.429688 L 155.527344 92.839844 L 155.175781 93.308594 L 154.824219 93.71875 L 154.707031 93.777344 L 154.675781 93.867188 L 154.355469 94.128906 L 153.886719 94.480469 L 153.386719 94.773438 L 152.773438 95.039062 L 152.097656 95.242188 L 151.425781 95.359375 L 151.042969 95.390625 L 150.457031 95.390625 L 149.726562 95.300781 L 149.050781 95.125 L 148.378906 94.863281 L 147.792969 94.539062 L 147.382812 94.246094 L 147 93.925781 L 146.503906 93.425781 L 146.121094 92.929688 L 145.769531 92.34375 L 145.476562 91.667969 L 145.300781 91.082031 L 145.183594 90.46875 L 145.15625 90.117188 Z M 145.15625 67.324219 " fill-opacity="1" fill-rule="nonzero"/><path fill="#91b0fd" d="M 186.648438 54.609375 L 188.4375 54.609375 L 189.609375 54.695312 L 190.722656 54.84375 L 191.71875 55.019531 L 192.566406 55.222656 L 193.328125 55.429688 L 194.414062 55.78125 L 195.234375 56.101562 L 195.90625 56.394531 L 196.84375 56.835938 L 197.488281 57.1875 L 198.132812 57.566406 L 198.691406 57.917969 L 199.160156 58.242188 L 199.6875 58.621094 L 200.066406 58.914062 L 200.710938 59.441406 L 201.003906 59.707031 L 201.238281 59.910156 L 201.328125 59.96875 L 201.328125 60.027344 L 201.445312 60.085938 L 202.441406 61.082031 L 202.644531 61.316406 L 202.9375 61.640625 L 203.203125 61.960938 L 203.582031 62.429688 L 203.933594 62.898438 L 204.316406 63.425781 L 204.753906 64.101562 L 205.195312 64.832031 L 205.488281 65.359375 L 205.898438 66.152344 L 206.308594 67.058594 L 206.71875 68.113281 L 207.070312 69.199219 L 207.304688 70.078125 L 207.539062 71.132812 L 207.714844 72.214844 L 207.832031 73.300781 L 207.859375 73.679688 L 207.890625 74.441406 L 207.890625 89.96875 L 207.832031 90.613281 L 207.714844 91.199219 L 207.507812 91.816406 L 207.15625 92.546875 L 206.894531 92.957031 L 206.601562 93.339844 L 206.277344 93.691406 L 205.957031 94.011719 L 205.457031 94.394531 L 204.929688 94.714844 L 204.375 94.980469 L 203.757812 95.183594 L 203.085938 95.332031 L 202.5 95.390625 L 201.882812 95.390625 L 201.179688 95.300781 L 200.59375 95.15625 L 200.039062 94.949219 L 199.539062 94.714844 L 198.984375 94.363281 L 198.660156 94.101562 L 198.367188 93.835938 L 197.988281 93.457031 L 197.664062 93.046875 L 197.371094 92.605469 L 197.109375 92.109375 L 196.875 91.492188 L 196.726562 90.964844 L 196.609375 90.203125 L 196.582031 89.675781 L 196.550781 74.238281 L 196.492188 73.679688 L 196.375 72.976562 L 196.140625 72.1875 L 195.9375 71.601562 L 195.671875 71.015625 L 195.378906 70.457031 L 195.085938 69.988281 L 194.734375 69.492188 L 194.472656 69.167969 L 194.207031 68.875 L 194.003906 68.640625 L 193.679688 68.320312 L 193.445312 68.113281 L 192.976562 67.734375 L 192.421875 67.351562 L 191.980469 67.089844 L 191.308594 66.738281 L 190.75 66.503906 L 189.960938 66.238281 L 189.199219 66.0625 L 188.671875 65.976562 L 187.996094 65.917969 L 186.796875 65.917969 L 186.035156 66.003906 L 185.449219 66.121094 L 184.746094 66.328125 L 184.070312 66.5625 L 183.484375 66.824219 L 182.78125 67.207031 L 182.429688 67.441406 L 182.019531 67.734375 L 181.550781 68.113281 L 181.171875 68.464844 L 180.730469 68.90625 L 180.46875 69.226562 L 180.234375 69.519531 L 179.882812 70.019531 L 179.472656 70.722656 L 179.121094 71.453125 L 178.855469 72.15625 L 178.652344 72.890625 L 178.503906 73.652344 L 178.417969 74.558594 L 178.417969 75.46875 L 178.503906 76.316406 L 178.652344 77.109375 L 178.855469 77.839844 L 179.148438 78.601562 L 179.5 79.335938 L 179.882812 79.980469 L 180.261719 80.507812 L 180.527344 80.828125 L 180.789062 81.121094 L 180.996094 81.355469 L 181.289062 81.648438 L 181.523438 81.855469 L 181.992188 82.234375 L 182.636719 82.675781 L 183.132812 82.96875 L 183.601562 83.203125 L 184.042969 83.40625 L 184.863281 83.699219 L 185.566406 83.875 L 186.238281 83.992188 L 187.265625 84.082031 L 187.910156 84.109375 L 188.613281 84.199219 L 189.257812 84.375 L 189.871094 84.609375 L 190.371094 84.871094 L 190.839844 85.195312 L 191.132812 85.429688 L 191.425781 85.691406 L 191.746094 86.015625 L 192.070312 86.425781 L 192.332031 86.835938 L 192.625 87.363281 L 192.859375 87.976562 L 193.007812 88.476562 L 193.09375 88.972656 L 193.152344 89.792969 L 193.09375 90.554688 L 192.949219 91.230469 L 192.714844 91.933594 L 192.390625 92.578125 L 192.039062 93.105469 L 191.777344 93.425781 L 191.367188 93.867188 L 190.957031 94.21875 L 190.339844 94.628906 L 189.84375 94.890625 L 189.226562 95.125 L 188.496094 95.300781 L 187.734375 95.390625 L 186.941406 95.390625 L 185.917969 95.332031 L 184.65625 95.183594 L 183.808594 95.066406 L 182.8125 94.863281 L 181.816406 94.597656 L 181.082031 94.363281 L 180.085938 94.011719 L 179.121094 93.601562 L 178.242188 93.191406 L 177.683594 92.898438 L 176.980469 92.488281 L 176.425781 92.136719 L 175.898438 91.785156 L 175.488281 91.492188 L 175.136719 91.230469 L 174.667969 90.847656 L 174.375 90.613281 L 173.964844 90.261719 L 173.523438 89.851562 L 173.027344 89.382812 L 172.792969 89.148438 L 172.585938 88.914062 L 172.382812 88.710938 L 172.175781 88.476562 L 171.824219 88.066406 L 171.445312 87.597656 L 171.152344 87.214844 L 170.769531 86.6875 L 170.242188 85.898438 L 169.890625 85.3125 L 169.539062 84.695312 L 169.128906 83.90625 L 168.75 83.085938 L 168.367188 82.117188 L 168.132812 81.472656 L 167.898438 80.710938 L 167.664062 79.832031 L 167.460938 78.894531 L 167.285156 77.839844 L 167.167969 76.785156 L 167.109375 75.90625 L 167.109375 74.089844 L 167.195312 72.976562 L 167.34375 71.777344 L 167.488281 70.925781 L 167.722656 69.902344 L 167.988281 68.992188 L 168.339844 67.9375 L 168.691406 67.058594 L 169.042969 66.269531 L 169.480469 65.390625 L 169.890625 64.6875 L 170.125 64.277344 L 170.507812 63.691406 L 170.828125 63.222656 L 171.238281 62.664062 L 171.5625 62.253906 L 171.941406 61.785156 L 172.234375 61.464844 L 172.441406 61.230469 L 172.5 61.140625 L 172.558594 61.140625 L 172.617188 61.023438 L 173.554688 60.085938 L 173.613281 60.085938 L 173.640625 60 L 173.875 59.792969 L 174.316406 59.414062 L 174.695312 59.089844 L 175.164062 58.738281 L 175.546875 58.445312 L 176.101562 58.066406 L 176.777344 57.625 L 177.214844 57.363281 L 177.890625 56.980469 L 178.679688 56.570312 L 179.734375 56.101562 L 180.761719 55.722656 L 181.757812 55.398438 L 182.753906 55.136719 L 183.894531 54.902344 L 184.832031 54.753906 L 186.0625 54.636719 Z M 192.128906 64.394531 L 192.128906 64.453125 L 192.1875 64.421875 Z M 192.246094 64.511719 L 192.246094 64.570312 L 192.304688 64.539062 Z M 192.363281 64.628906 L 192.363281 64.6875 L 192.421875 64.65625 Z M 192.449219 64.746094 L 192.507812 64.804688 L 192.507812 64.746094 Z M 193.5625 66.035156 L 193.59375 66.09375 Z M 193.652344 66.152344 L 193.679688 66.210938 Z M 194.148438 66.855469 L 194.179688 66.914062 Z M 194.941406 68.203125 L 194.96875 68.261719 Z M 195 68.320312 L 195.027344 68.378906 Z M 195.058594 68.4375 L 195.085938 68.496094 Z M 195.117188 68.554688 L 195.144531 68.613281 Z M 195.234375 68.816406 L 195.261719 68.875 Z M 195.261719 68.875 L 195.292969 68.933594 Z M 195.320312 69.023438 L 195.378906 69.140625 L 195.351562 69.023438 Z M 195.378906 69.140625 L 195.410156 69.199219 Z M 195.410156 69.199219 L 195.4375 69.257812 Z M 195.4375 69.285156 L 195.46875 69.34375 Z M 195.46875 69.34375 L 195.496094 69.433594 Z M 195.496094 69.433594 L 195.527344 69.492188 Z M 195.527344 69.492188 L 195.554688 69.550781 Z M 195.554688 69.578125 L 195.585938 69.636719 Z M 195.585938 69.636719 L 195.613281 69.726562 Z M 195.613281 69.726562 L 195.644531 69.785156 Z M 195.644531 69.8125 L 195.671875 69.871094 Z M 195.671875 69.902344 L 195.703125 69.960938 Z M 195.703125 69.960938 L 195.730469 70.046875 Z M 195.730469 70.046875 L 195.761719 70.105469 Z M 195.761719 70.136719 L 195.789062 70.195312 Z M 195.789062 70.222656 L 195.820312 70.28125 Z M 195.820312 70.3125 L 195.847656 70.371094 Z M 195.9375 70.664062 L 195.964844 70.722656 Z M 196.230469 71.804688 L 196.257812 71.863281 Z M 196.289062 72.070312 L 196.316406 72.128906 Z M 173.964844 74.707031 L 173.992188 74.765625 Z M 173.613281 75.585938 L 173.640625 75.644531 Z M 173.523438 75.820312 L 173.554688 75.878906 Z M 174.929688 88.359375 L 174.960938 88.417969 Z M 175.3125 88.945312 L 175.339844 89.003906 Z M 175.515625 89.238281 L 175.546875 89.296875 Z M 175.867188 89.707031 L 175.898438 89.765625 Z M 175.984375 89.851562 L 176.015625 89.910156 Z M 176.132812 90.027344 L 176.160156 90.085938 Z M 176.394531 90.351562 L 176.425781 90.410156 Z M 176.746094 90.730469 L 176.777344 90.820312 L 176.835938 90.789062 Z M 176.835938 90.820312 L 176.894531 90.9375 L 177.128906 91.171875 L 177.1875 91.140625 L 176.863281 90.820312 Z M 177.1875 91.171875 L 177.246094 91.289062 L 177.304688 91.257812 Z M 177.363281 91.347656 L 177.363281 91.40625 L 177.421875 91.375 Z M 179.734375 93.191406 L 179.765625 93.25 L 179.824219 93.222656 Z M 179.882812 93.28125 L 179.910156 93.339844 L 179.96875 93.308594 Z M 179.882812 93.28125 " fill-opacity="1" fill-rule="nonzero"/><path fill="#6c93f5" d="M 181.199219 60.292969 L 182.636719 60.292969 L 183.457031 60.351562 L 184.480469 60.496094 L 185.300781 60.671875 L 186.09375 60.878906 L 187.117188 61.230469 L 187.792969 61.523438 L 188.554688 61.875 L 189.199219 62.226562 L 189.753906 62.578125 L 189.84375 62.605469 L 189.84375 62.664062 L 189.929688 62.664062 L 189.929688 62.722656 L 190.019531 62.722656 L 190.019531 62.78125 L 190.195312 62.839844 L 190.195312 62.898438 L 190.28125 62.898438 L 190.28125 62.957031 L 190.371094 62.957031 L 190.488281 63.074219 L 190.605469 63.132812 L 190.605469 63.191406 L 190.722656 63.222656 L 190.722656 63.28125 L 190.839844 63.308594 L 190.839844 63.367188 L 190.957031 63.398438 L 190.957031 63.457031 L 191.015625 63.457031 L 191.015625 63.515625 L 191.132812 63.542969 L 191.160156 63.601562 L 191.308594 63.691406 L 191.308594 63.75 L 191.453125 63.808594 L 191.746094 64.101562 L 191.894531 64.1875 L 192.097656 64.421875 L 192.246094 64.511719 L 192.246094 64.570312 L 192.363281 64.628906 L 192.421875 64.746094 L 192.65625 64.949219 L 192.773438 65.125 L 193.066406 65.449219 L 193.210938 65.59375 L 193.242188 65.683594 L 193.359375 65.769531 L 193.386719 65.859375 L 193.445312 65.886719 L 193.503906 66.003906 L 193.652344 66.152344 L 193.738281 66.328125 L 193.796875 66.355469 L 193.886719 66.503906 L 193.886719 66.5625 L 193.945312 66.5625 L 193.945312 66.648438 L 194.003906 66.648438 L 194.089844 66.824219 L 194.179688 66.914062 L 194.324219 67.175781 L 194.558594 67.558594 L 194.558594 67.617188 L 194.617188 67.617188 L 194.734375 67.851562 L 194.96875 68.289062 L 195.261719 68.875 L 195.527344 69.492188 L 195.671875 69.929688 L 195.761719 70.164062 L 196.023438 70.984375 L 196.289062 72.070312 L 196.316406 72.246094 L 196.316406 72.625 L 196.257812 72.597656 L 196.082031 72.011719 L 195.90625 71.542969 L 195.671875 71.015625 L 195.378906 70.457031 L 195.085938 69.988281 L 194.734375 69.492188 L 194.472656 69.167969 L 194.207031 68.875 L 194.003906 68.640625 L 193.679688 68.320312 L 193.445312 68.113281 L 192.976562 67.734375 L 192.421875 67.351562 L 191.980469 67.089844 L 191.308594 66.738281 L 190.75 66.503906 L 189.960938 66.238281 L 189.199219 66.0625 L 188.671875 65.976562 L 187.996094 65.917969 L 186.796875 65.917969 L 186.035156 66.003906 L 185.449219 66.121094 L 184.746094 66.328125 L 184.070312 66.5625 L 183.484375 66.824219 L 182.78125 67.207031 L 182.429688 67.441406 L 182.019531 67.734375 L 181.550781 68.113281 L 181.171875 68.464844 L 180.730469 68.90625 L 180.46875 69.226562 L 180.234375 69.519531 L 179.882812 70.019531 L 179.472656 70.722656 L 179.121094 71.453125 L 178.855469 72.15625 L 178.652344 72.890625 L 178.503906 73.652344 L 178.417969 74.558594 L 178.417969 75.46875 L 178.503906 76.316406 L 178.652344 77.109375 L 178.855469 77.839844 L 179.148438 78.601562 L 179.5 79.335938 L 179.882812 79.980469 L 180.261719 80.507812 L 180.527344 80.828125 L 180.789062 81.121094 L 180.996094 81.355469 L 181.289062 81.648438 L 181.523438 81.855469 L 181.992188 82.234375 L 182.636719 82.675781 L 183.132812 82.96875 L 183.601562 83.203125 L 184.042969 83.40625 L 184.863281 83.699219 L 185.566406 83.875 L 186.238281 83.992188 L 187.265625 84.082031 L 187.910156 84.109375 L 188.613281 84.199219 L 189.257812 84.375 L 189.871094 84.609375 L 190.371094 84.871094 L 190.839844 85.195312 L 191.132812 85.429688 L 191.425781 85.691406 L 191.746094 86.015625 L 192.070312 86.425781 L 192.332031 86.835938 L 192.625 87.363281 L 192.859375 87.976562 L 193.007812 88.476562 L 193.09375 88.972656 L 193.152344 89.792969 L 193.09375 90.554688 L 192.949219 91.230469 L 192.714844 91.933594 L 192.390625 92.578125 L 192.039062 93.105469 L 191.777344 93.425781 L 191.367188 93.867188 L 190.957031 94.21875 L 190.339844 94.628906 L 189.84375 94.890625 L 189.226562 95.125 L 188.496094 95.300781 L 187.734375 95.390625 L 186.941406 95.390625 L 185.917969 95.332031 L 184.65625 95.183594 L 183.808594 95.066406 L 182.8125 94.863281 L 181.816406 94.597656 L 181.082031 94.363281 L 180.085938 94.011719 L 179.121094 93.601562 L 178.242188 93.191406 L 177.683594 92.898438 L 176.980469 92.488281 L 176.425781 92.136719 L 175.898438 91.785156 L 175.488281 91.492188 L 175.136719 91.230469 L 174.667969 90.847656 L 174.375 90.613281 L 173.964844 90.261719 L 173.523438 89.851562 L 173.027344 89.382812 L 172.792969 89.148438 L 172.585938 88.914062 L 172.382812 88.710938 L 172.175781 88.476562 L 171.824219 88.066406 L 171.445312 87.597656 L 171.152344 87.214844 L 170.769531 86.6875 L 170.242188 85.898438 L 169.890625 85.3125 L 169.539062 84.695312 L 169.128906 83.90625 L 168.75 83.085938 L 168.367188 82.117188 L 168.132812 81.472656 L 167.898438 80.710938 L 167.664062 79.832031 L 167.460938 78.894531 L 167.285156 77.839844 L 167.167969 76.785156 L 167.109375 75.90625 L 167.109375 74.089844 L 167.195312 72.976562 L 167.3125 72.011719 L 167.371094 71.804688 L 167.429688 71.835938 L 167.519531 71.570312 L 167.636719 71.101562 L 167.898438 70.222656 L 168.191406 69.433594 L 168.515625 68.730469 L 168.867188 67.996094 L 169.101562 67.585938 L 169.421875 67.058594 L 169.65625 66.707031 L 170.039062 66.179688 L 170.417969 65.710938 L 170.652344 65.417969 L 170.917969 65.125 L 171.0625 64.949219 L 171.238281 64.804688 L 171.445312 64.570312 L 171.648438 64.363281 L 171.824219 64.21875 L 171.972656 64.070312 L 172.324219 63.75 L 172.734375 63.425781 L 173.230469 63.046875 L 173.699219 62.722656 L 174.199219 62.402344 L 174.8125 62.050781 L 175.488281 61.699219 L 176.21875 61.375 L 177.011719 61.082031 L 177.949219 60.789062 L 178.972656 60.554688 L 180.027344 60.378906 L 180.671875 60.320312 Z M 173.964844 74.707031 L 173.992188 74.765625 Z M 173.613281 75.585938 L 173.640625 75.644531 Z M 173.523438 75.820312 L 173.554688 75.878906 Z M 174.929688 88.359375 L 174.960938 88.417969 Z M 175.3125 88.945312 L 175.339844 89.003906 Z M 175.515625 89.238281 L 175.546875 89.296875 Z M 175.867188 89.707031 L 175.898438 89.765625 Z M 175.984375 89.851562 L 176.015625 89.910156 Z M 176.132812 90.027344 L 176.160156 90.085938 Z M 176.394531 90.351562 L 176.425781 90.410156 Z M 176.746094 90.730469 L 176.777344 90.820312 L 176.835938 90.789062 Z M 176.835938 90.820312 L 176.894531 90.9375 L 177.128906 91.171875 L 177.1875 91.140625 L 176.863281 90.820312 Z M 177.1875 91.171875 L 177.246094 91.289062 L 177.304688 91.257812 Z M 177.363281 91.347656 L 177.363281 91.40625 L 177.421875 91.375 Z M 179.734375 93.191406 L 179.765625 93.25 L 179.824219 93.222656 Z M 179.882812 93.28125 L 179.910156 93.339844 L 179.96875 93.308594 Z M 179.882812 93.28125 " fill-opacity="1" fill-rule="nonzero"/><path fill="#4771db" d="M 185.242188 66.0625 L 185.300781 66.121094 L 185.242188 66.179688 L 184.65625 66.355469 L 184.070312 66.5625 L 183.484375 66.824219 L 182.78125 67.207031 L 182.429688 67.441406 L 182.019531 67.734375 L 181.550781 68.113281 L 181.171875 68.464844 L 180.730469 68.90625 L 180.46875 69.226562 L 180.234375 69.519531 L 179.882812 70.019531 L 179.472656 70.722656 L 179.121094 71.453125 L 178.855469 72.15625 L 178.652344 72.890625 L 178.503906 73.652344 L 178.417969 74.558594 L 178.417969 75.46875 L 178.503906 76.316406 L 178.652344 77.109375 L 178.855469 77.839844 L 179.148438 78.601562 L 179.5 79.335938 L 179.882812 79.980469 L 180.261719 80.507812 L 180.527344 80.828125 L 180.789062 81.121094 L 180.996094 81.355469 L 181.289062 81.648438 L 181.523438 81.855469 L 181.992188 82.234375 L 182.636719 82.675781 L 183.132812 82.96875 L 183.601562 83.203125 L 184.042969 83.40625 L 184.863281 83.699219 L 185.566406 83.875 L 186.238281 83.992188 L 187.265625 84.082031 L 187.910156 84.109375 L 188.613281 84.199219 L 189.257812 84.375 L 189.871094 84.609375 L 190.371094 84.871094 L 190.839844 85.195312 L 191.132812 85.429688 L 191.425781 85.691406 L 191.746094 86.015625 L 192.070312 86.425781 L 192.332031 86.835938 L 192.625 87.363281 L 192.859375 87.976562 L 193.007812 88.476562 L 193.09375 88.972656 L 193.152344 89.792969 L 193.09375 90.554688 L 192.949219 91.230469 L 192.714844 91.933594 L 192.390625 92.578125 L 192.039062 93.105469 L 191.777344 93.425781 L 191.367188 93.867188 L 190.957031 94.21875 L 190.339844 94.628906 L 189.84375 94.890625 L 189.226562 95.125 L 188.496094 95.300781 L 187.734375 95.390625 L 186.941406 95.390625 L 185.917969 95.332031 L 184.65625 95.183594 L 184.421875 95.15625 L 184.421875 95.066406 L 184.011719 94.949219 L 183.660156 94.863281 L 182.898438 94.628906 L 182.371094 94.453125 L 181.640625 94.160156 L 181.375 94.042969 L 181.140625 93.953125 L 181.140625 93.894531 L 180.996094 93.867188 L 180.378906 93.574219 L 180.378906 93.515625 L 180.175781 93.457031 L 180.175781 93.398438 L 180.027344 93.367188 L 179.5 93.046875 L 179.207031 92.839844 L 179.207031 92.78125 L 179.0625 92.753906 L 179.03125 92.664062 L 178.914062 92.636719 L 178.5625 92.371094 L 178.5625 92.3125 L 178.445312 92.285156 L 178.269531 92.136719 L 178.269531 92.078125 L 178.152344 92.050781 L 178.125 91.960938 L 178.007812 91.933594 L 177.976562 91.84375 L 177.832031 91.785156 L 177.480469 91.464844 L 176.425781 90.410156 L 176.277344 90.175781 L 176.132812 90.027344 L 175.898438 89.765625 L 175.808594 89.589844 L 175.75 89.558594 L 175.722656 89.472656 L 175.664062 89.441406 L 175.632812 89.355469 L 175.515625 89.238281 L 175.429688 89.0625 L 175.3125 88.945312 L 175.164062 88.679688 L 174.785156 88.066406 L 174.550781 87.65625 L 174.257812 87.097656 L 173.789062 86.042969 L 173.496094 85.253906 L 173.261719 84.460938 L 173.085938 83.699219 L 172.9375 82.910156 L 172.851562 82.089844 L 172.792969 81.238281 L 172.792969 80.183594 L 172.851562 79.128906 L 172.9375 78.398438 L 173.054688 77.722656 L 173.203125 77.050781 L 173.4375 76.230469 L 173.730469 75.378906 L 174.023438 74.675781 L 174.492188 73.710938 L 174.871094 73.035156 L 175.515625 72.070312 L 175.632812 71.921875 L 175.664062 71.835938 L 175.808594 71.6875 L 176.042969 71.367188 L 176.132812 71.25 L 176.191406 71.25 L 176.21875 71.132812 L 176.367188 71.015625 L 176.453125 70.867188 L 177.566406 69.753906 L 177.800781 69.550781 L 178.066406 69.316406 L 178.476562 68.992188 L 178.738281 68.789062 L 178.796875 68.789062 L 178.796875 68.730469 L 179.003906 68.613281 L 179.238281 68.4375 L 179.296875 68.4375 L 179.296875 68.378906 L 179.472656 68.320312 L 179.472656 68.261719 L 179.648438 68.203125 L 179.648438 68.144531 L 179.792969 68.113281 L 179.792969 68.054688 L 180.085938 67.910156 L 180.90625 67.441406 L 181.550781 67.148438 L 182.519531 66.765625 L 183.105469 66.5625 L 183.835938 66.355469 L 184.570312 66.179688 Z M 185.242188 66.0625 " fill-opacity="1" fill-rule="nonzero"/><path fill="#84a5fa" d="M 173.347656 76.316406 L 173.40625 76.316406 L 173.347656 76.609375 L 173.144531 77.429688 L 172.996094 78.191406 L 172.910156 78.835938 L 172.851562 79.570312 L 172.820312 80.183594 L 172.761719 80.273438 L 172.761719 79.421875 L 172.820312 78.808594 L 172.9375 78.015625 L 173.113281 77.167969 Z M 173.347656 76.316406 " fill-opacity="1" fill-rule="nonzero"/><path fill="#8faefd" d="M 167.753906 70.429688 L 167.78125 70.488281 L 167.695312 70.808594 L 167.664062 71.101562 L 167.488281 71.746094 L 167.429688 71.953125 L 167.34375 71.953125 L 167.371094 71.570312 L 167.519531 70.839844 L 167.605469 70.808594 L 167.636719 70.605469 Z M 167.753906 70.429688 " fill-opacity="1" fill-rule="nonzero"/><path fill="#6c92f3" d="M 182.988281 94.714844 L 183.25 94.773438 L 183.457031 94.832031 L 183.660156 94.832031 L 184.511719 95.066406 L 184.394531 95.125 L 184.160156 95.125 L 183.339844 94.980469 L 183.339844 94.921875 L 183.222656 94.890625 L 183.222656 94.832031 L 183.015625 94.773438 Z M 182.988281 94.714844 " fill-opacity="1" fill-rule="nonzero"/><path fill="#87a9fb" d="M 172.761719 80.976562 L 172.792969 80.976562 L 172.9375 82.703125 L 173.085938 83.554688 L 173.144531 83.847656 L 173.144531 83.992188 L 173.085938 83.964844 L 172.9375 83.289062 L 172.910156 82.9375 L 172.878906 82.910156 L 172.792969 82.175781 L 172.761719 81.824219 Z M 172.761719 80.976562 " fill-opacity="1" fill-rule="nonzero"/><path fill="#88a9fb" d="M 173.347656 76.316406 L 173.40625 76.316406 L 173.347656 76.609375 L 173.144531 77.429688 L 172.996094 78.191406 L 172.9375 78.339844 L 172.910156 78.339844 L 172.9375 78.015625 L 173.113281 77.167969 Z M 173.347656 76.316406 " fill-opacity="1" fill-rule="nonzero"/><path fill="#88a9fb" d="M 172.851562 82.617188 L 172.910156 82.617188 L 172.996094 83.054688 L 173.113281 83.699219 L 173.144531 83.992188 L 173.085938 83.964844 L 172.9375 83.289062 L 172.910156 82.9375 L 172.878906 82.910156 Z M 172.851562 82.617188 " fill-opacity="1" fill-rule="nonzero"/><path fill="#83a5fa" d="M 173.699219 85.808594 L 173.757812 85.898438 L 174.140625 86.777344 L 174.257812 87.011719 L 174.257812 87.097656 L 174.167969 87.070312 L 174.082031 86.835938 L 173.992188 86.6875 L 173.933594 86.542969 L 173.789062 86.160156 L 173.671875 85.898438 Z M 173.699219 85.808594 " fill-opacity="1" fill-rule="nonzero"/><path fill="#4872db" d="M 182.988281 94.714844 L 183.25 94.773438 L 184.042969 94.980469 L 184.042969 95.007812 L 183.777344 95.007812 L 183.574219 94.980469 L 183.339844 94.980469 L 183.339844 94.921875 L 183.222656 94.890625 L 183.222656 94.832031 L 183.015625 94.773438 Z M 182.988281 94.714844 " fill-opacity="1" fill-rule="nonzero"/><path fill="#92b1fe" d="M 167.605469 71.101562 L 167.636719 71.191406 L 167.488281 71.746094 L 167.429688 71.953125 L 167.34375 71.953125 L 167.371094 71.570312 L 167.429688 71.660156 L 167.578125 71.132812 Z M 167.605469 71.101562 " fill-opacity="1" fill-rule="nonzero"/><path fill="#759af7" d="M 167.546875 71.101562 L 167.578125 71.101562 L 167.546875 71.308594 L 167.460938 71.660156 L 167.402344 71.746094 L 167.402344 71.425781 L 167.460938 71.21875 Z M 167.546875 71.101562 " fill-opacity="1" fill-rule="nonzero"/><path fill="#88a9fb" d="M 174.578125 73.445312 L 174.636719 73.445312 L 174.578125 73.621094 L 174.285156 74.179688 L 174.226562 74.238281 L 174.199219 74.179688 L 174.550781 73.476562 Z M 174.578125 73.445312 " fill-opacity="1" fill-rule="nonzero"/><path fill="#80a2f9" d="M 172.9375 78.222656 L 172.96875 78.222656 L 172.9375 78.542969 L 172.878906 79.128906 L 172.820312 79.011719 L 172.851562 78.601562 L 172.878906 78.367188 Z M 172.9375 78.222656 " fill-opacity="1" fill-rule="nonzero"/><path fill="#84a6fa" d="M 175.398438 72.128906 L 175.457031 72.1875 L 175.019531 72.859375 L 174.960938 72.800781 Z M 175.398438 72.128906 " fill-opacity="1" fill-rule="nonzero"/><path fill="#7499f6" d="M 182.839844 94.628906 L 183.074219 94.65625 L 183.574219 94.804688 L 183.601562 94.863281 L 183.367188 94.832031 L 182.839844 94.65625 Z M 182.839844 94.628906 " fill-opacity="1" fill-rule="nonzero"/><path fill="#86a8fb" d="M 173.261719 84.460938 L 173.320312 84.550781 L 173.464844 85.046875 L 173.464844 85.136719 L 173.40625 85.136719 L 173.261719 84.667969 L 173.230469 84.492188 Z M 173.261719 84.460938 " fill-opacity="1" fill-rule="nonzero"/><path fill="#6c93f5" d="M 167.753906 70.429688 L 167.78125 70.488281 L 167.636719 70.984375 L 167.578125 70.925781 L 167.605469 70.664062 Z M 167.753906 70.429688 " fill-opacity="1" fill-rule="nonzero"/><path fill="#84a6fa" d="M 173.054688 77.605469 L 173.085938 77.722656 L 172.996094 78.191406 L 172.9375 78.339844 L 172.910156 78.339844 L 172.9375 78.015625 L 172.996094 77.722656 Z M 173.054688 77.605469 " fill-opacity="1" fill-rule="nonzero"/><path fill="#89aafc" d="M 178.386719 68.992188 L 178.445312 69.050781 L 178.007812 69.402344 L 178.007812 69.316406 L 178.269531 69.082031 Z M 178.386719 68.992188 " fill-opacity="1" fill-rule="nonzero"/><path fill="#86a8fb" d="M 173.699219 85.808594 L 173.757812 85.898438 L 173.90625 86.25 L 173.90625 86.308594 L 173.816406 86.277344 L 173.671875 85.898438 Z M 173.699219 85.808594 " fill-opacity="1" fill-rule="nonzero"/><path fill="#85a7fb" d="M 173.144531 83.992188 L 173.203125 84.082031 L 173.261719 84.316406 L 173.261719 84.460938 L 173.203125 84.433594 L 173.113281 84.109375 Z M 173.144531 83.992188 " fill-opacity="1" fill-rule="nonzero"/><path fill="#80a3f9" d="M 174.375 87.332031 L 174.460938 87.421875 L 174.609375 87.714844 L 174.578125 87.773438 L 174.492188 87.683594 L 174.34375 87.363281 Z M 174.375 87.332031 " fill-opacity="1" fill-rule="nonzero"/><path fill="#84a6fa" d="M 174.726562 87.976562 L 174.8125 88.066406 L 174.960938 88.300781 L 174.929688 88.359375 L 174.8125 88.242188 L 174.695312 88.066406 Z M 174.726562 87.976562 " fill-opacity="1" fill-rule="nonzero"/><path fill="#88a9fb" d="M 174.929688 72.832031 L 174.988281 72.890625 L 174.785156 73.242188 L 174.726562 73.183594 Z M 174.929688 72.832031 " fill-opacity="1" fill-rule="nonzero"/><path fill="#7b9ff8" d="M 172.851562 82.089844 L 172.878906 82.089844 L 172.910156 82.617188 L 172.851562 82.617188 L 172.820312 82.382812 Z M 172.851562 82.089844 " fill-opacity="1" fill-rule="nonzero"/><path fill="#6c91f3" d="M 227.179688 54.609375 L 228.144531 54.609375 L 228.789062 54.695312 L 229.347656 54.84375 L 229.960938 55.078125 L 230.578125 55.398438 L 231.046875 55.722656 L 231.367188 55.984375 L 231.515625 56.101562 L 231.515625 56.160156 L 231.632812 56.21875 L 231.984375 56.601562 L 232.335938 57.070312 L 232.597656 57.507812 L 232.832031 57.976562 L 233.066406 58.59375 L 233.214844 59.207031 L 233.300781 60.027344 L 233.359375 61.054688 L 233.449219 61.757812 L 233.59375 62.460938 L 233.769531 63.074219 L 234.003906 63.71875 L 234.355469 64.480469 L 234.765625 65.183594 L 235.117188 65.683594 L 235.382812 66.003906 L 235.703125 66.386719 L 236.347656 67.03125 L 236.671875 67.292969 L 237.167969 67.675781 L 237.667969 67.996094 L 238.222656 68.320312 L 238.925781 68.640625 L 239.628906 68.90625 L 240.421875 69.109375 L 241.035156 69.226562 L 241.828125 69.316406 L 243 69.316406 L 243.789062 69.226562 L 244.523438 69.082031 L 245.253906 68.875 L 245.957031 68.613281 L 246.808594 68.203125 L 247.394531 67.851562 L 247.890625 67.5 L 248.214844 67.234375 L 248.625 66.882812 L 249.121094 66.386719 L 249.328125 66.152344 L 249.679688 65.710938 L 250.03125 65.214844 L 250.234375 64.890625 L 250.410156 64.570312 L 250.792969 63.777344 L 251.085938 62.957031 L 251.289062 62.195312 L 251.40625 61.523438 L 251.464844 60.964844 L 251.523438 59.824219 L 251.613281 59.148438 L 251.789062 58.476562 L 252.023438 57.890625 L 252.316406 57.332031 L 252.636719 56.863281 L 252.902344 56.542969 L 253.253906 56.160156 L 253.546875 55.898438 L 254.015625 55.546875 L 254.570312 55.222656 L 254.980469 55.019531 L 255.683594 54.785156 L 256.386719 54.636719 L 256.679688 54.609375 L 257.648438 54.609375 L 258.292969 54.695312 L 258.9375 54.871094 L 259.523438 55.105469 L 260.078125 55.398438 L 260.460938 55.664062 L 260.871094 55.984375 L 261.25 56.335938 L 261.457031 56.570312 L 261.835938 57.070312 L 262.101562 57.507812 L 262.335938 57.976562 L 262.539062 58.503906 L 262.6875 59.03125 L 262.773438 59.589844 L 262.804688 59.96875 L 262.804688 60.847656 L 262.746094 61.960938 L 262.628906 63.015625 L 262.453125 64.101562 L 262.1875 65.300781 L 261.867188 66.414062 L 261.515625 67.441406 L 261.105469 68.4375 L 260.753906 69.199219 L 260.226562 70.222656 L 259.726562 71.042969 L 259.347656 71.628906 L 258.964844 72.1875 L 258.351562 72.976562 L 257.96875 73.445312 L 257.179688 74.324219 L 256.535156 74.96875 L 256.59375 75.085938 L 257.414062 75.90625 L 257.617188 76.140625 L 257.910156 76.464844 L 258.144531 76.757812 L 258.554688 77.253906 L 258.964844 77.8125 L 259.433594 78.484375 L 259.785156 79.042969 L 260.167969 79.6875 L 260.578125 80.449219 L 260.898438 81.09375 L 261.222656 81.824219 L 261.574219 82.734375 L 261.925781 83.757812 L 262.101562 84.375 L 262.394531 85.605469 L 262.539062 86.425781 L 262.6875 87.625 L 262.773438 88.5625 L 262.804688 89.148438 L 262.804688 90 L 262.746094 90.613281 L 262.597656 91.289062 L 262.421875 91.816406 L 262.070312 92.546875 L 261.808594 92.957031 L 261.515625 93.339844 L 261.191406 93.691406 L 260.871094 94.011719 L 260.460938 94.335938 L 259.902344 94.6875 L 259.289062 94.980469 L 258.585938 95.214844 L 258 95.332031 L 257.382812 95.390625 L 256.855469 95.390625 L 256.269531 95.332031 L 255.539062 95.15625 L 255.011719 94.980469 L 254.308594 94.628906 L 253.957031 94.394531 L 253.574219 94.101562 L 253.195312 93.75 L 252.929688 93.484375 L 252.667969 93.164062 L 252.375 92.753906 L 252.082031 92.226562 L 251.847656 91.667969 L 251.671875 91.113281 L 251.554688 90.46875 L 251.4375 88.710938 L 251.320312 87.949219 L 251.113281 87.128906 L 250.910156 86.511719 L 250.617188 85.839844 L 250.234375 85.105469 L 249.855469 84.519531 L 249.503906 84.050781 L 249.121094 83.613281 L 248.769531 83.230469 L 248.476562 82.96875 L 248.066406 82.617188 L 247.539062 82.234375 L 246.984375 81.882812 L 246.191406 81.472656 L 245.460938 81.179688 L 244.816406 80.976562 L 244.171875 80.828125 L 243.703125 80.742188 L 243.117188 80.683594 L 242.558594 80.652344 L 242.207031 80.652344 L 241.621094 80.683594 L 240.917969 80.769531 L 240.097656 80.945312 L 239.335938 81.179688 L 238.691406 81.445312 L 238.195312 81.679688 L 237.492188 82.089844 L 236.992188 82.441406 L 236.582031 82.761719 L 236.230469 83.085938 L 235.996094 83.289062 L 235.792969 83.496094 L 235.585938 83.730469 L 235.265625 84.109375 L 234.882812 84.636719 L 234.53125 85.195312 L 234.179688 85.867188 L 233.945312 86.425781 L 233.742188 87.011719 L 233.535156 87.714844 L 233.390625 88.503906 L 233.332031 89.324219 L 233.273438 90.320312 L 233.183594 90.9375 L 232.980469 91.667969 L 232.746094 92.195312 L 232.480469 92.695312 L 232.160156 93.164062 L 231.777344 93.601562 L 231.339844 94.042969 L 230.871094 94.394531 L 230.402344 94.6875 L 229.785156 94.980469 L 229.171875 95.183594 L 228.496094 95.332031 L 227.910156 95.390625 L 227.355469 95.390625 L 226.769531 95.332031 L 226.035156 95.15625 L 225.507812 94.980469 L 225.011719 94.746094 L 224.453125 94.394531 L 224.074219 94.101562 L 223.78125 93.835938 L 223.398438 93.457031 L 223.078125 93.046875 L 222.785156 92.605469 L 222.492188 92.050781 L 222.285156 91.523438 L 222.109375 90.847656 L 222.023438 90.203125 L 222.023438 88.738281 L 222.109375 87.625 L 222.257812 86.484375 L 222.492188 85.28125 L 222.753906 84.226562 L 223.019531 83.347656 L 223.371094 82.382812 L 223.722656 81.53125 L 224.191406 80.535156 L 224.660156 79.65625 L 225.15625 78.835938 L 225.625 78.132812 L 226.035156 77.578125 L 226.300781 77.226562 L 226.679688 76.757812 L 226.945312 76.433594 L 227.265625 76.082031 L 227.472656 75.847656 L 227.792969 75.496094 L 228.203125 75.085938 L 228.261719 75.085938 L 228.292969 74.96875 L 227.472656 74.148438 L 227.265625 73.914062 L 227.003906 73.621094 L 226.679688 73.242188 L 226.417969 72.917969 L 226.125 72.539062 L 225.714844 71.980469 L 225.1875 71.191406 L 224.777344 70.515625 L 224.484375 69.988281 L 224.132812 69.34375 L 223.75 68.523438 L 223.371094 67.617188 L 223.019531 66.621094 L 222.726562 65.652344 L 222.492188 64.714844 L 222.257812 63.484375 L 222.109375 62.34375 L 222.023438 61.199219 L 222.023438 59.734375 L 222.140625 59.003906 L 222.316406 58.386719 L 222.550781 57.832031 L 222.8125 57.332031 L 223.046875 56.980469 L 223.371094 56.570312 L 223.78125 56.132812 L 224.191406 55.78125 L 224.6875 55.429688 L 225.15625 55.164062 L 225.714844 54.929688 L 226.300781 54.753906 L 226.886719 54.636719 Z M 260.988281 82.675781 L 261.015625 82.734375 Z M 261.164062 82.996094 L 261.191406 83.054688 Z M 261.222656 83.113281 L 261.25 83.171875 Z M 261.28125 83.230469 L 261.308594 83.289062 Z M 234.621094 83.582031 L 234.648438 83.640625 Z M 261.515625 83.730469 L 261.542969 83.789062 Z M 234.53125 83.789062 L 234.5625 83.847656 Z M 261.542969 83.789062 L 261.574219 83.847656 Z M 234.503906 83.847656 L 234.53125 83.90625 Z M 234.445312 83.992188 L 234.472656 84.050781 Z M 234.386719 84.140625 L 234.414062 84.199219 Z M 234.355469 84.199219 L 234.386719 84.257812 Z M 234.328125 84.285156 L 234.355469 84.34375 Z M 234.296875 84.34375 L 234.328125 84.402344 Z M 234.269531 84.433594 L 234.296875 84.492188 Z M 234.210938 84.578125 L 234.238281 84.636719 Z M 234.179688 84.667969 L 234.210938 84.726562 Z M 234.152344 84.726562 L 234.179688 84.8125 Z M 234.09375 84.902344 L 234.121094 84.960938 Z M 234.0625 84.988281 L 234.09375 85.046875 Z M 234.0625 84.988281 " fill-opacity="1" fill-rule="nonzero"/><path fill="#4771db" d="M 247.511719 75.027344 L 248.683594 75.027344 L 249.765625 75.117188 L 250.734375 75.261719 L 251.554688 75.4375 L 252.433594 75.671875 L 253.28125 75.964844 L 254.042969 76.289062 L 254.835938 76.667969 L 255.507812 77.050781 L 256.066406 77.402344 L 256.417969 77.636719 L 256.621094 77.78125 L 256.710938 77.8125 L 256.855469 77.957031 L 257.0625 78.074219 L 257.089844 78.132812 L 257.179688 78.164062 L 257.324219 78.308594 L 257.5 78.457031 L 257.5 78.515625 L 257.617188 78.574219 L 257.882812 78.777344 L 257.882812 78.835938 L 258 78.867188 L 258.144531 79.011719 L 258.261719 79.160156 L 258.4375 79.304688 L 258.613281 79.511719 L 258.820312 79.6875 L 259.023438 79.921875 L 259.289062 80.242188 L 259.289062 80.300781 L 259.347656 80.300781 L 259.550781 80.566406 L 259.667969 80.683594 L 259.667969 80.742188 L 259.757812 80.769531 L 259.875 80.976562 L 260.019531 81.179688 L 260.078125 81.210938 L 260.195312 81.414062 L 260.253906 81.5625 L 260.3125 81.5625 L 260.460938 81.824219 L 260.664062 82.148438 L 260.898438 82.558594 L 261.046875 82.820312 L 261.105469 82.996094 L 261.164062 82.996094 L 261.28125 83.230469 L 261.398438 83.523438 L 261.484375 83.699219 L 261.484375 83.789062 L 261.542969 83.789062 L 261.71875 84.257812 L 262.070312 85.253906 L 262.246094 85.808594 L 262.421875 86.453125 L 262.480469 86.542969 L 262.511719 86.6875 L 262.597656 86.921875 L 262.746094 88.183594 L 262.804688 89.148438 L 262.804688 90 L 262.746094 90.613281 L 262.597656 91.289062 L 262.421875 91.816406 L 262.070312 92.546875 L 261.808594 92.957031 L 261.515625 93.339844 L 261.191406 93.691406 L 260.871094 94.011719 L 260.460938 94.335938 L 259.902344 94.6875 L 259.289062 94.980469 L 258.585938 95.214844 L 258 95.332031 L 257.382812 95.390625 L 256.855469 95.390625 L 256.269531 95.332031 L 255.539062 95.15625 L 255.011719 94.980469 L 254.308594 94.628906 L 253.957031 94.394531 L 253.574219 94.101562 L 253.195312 93.75 L 252.929688 93.484375 L 252.667969 93.164062 L 252.375 92.753906 L 252.082031 92.226562 L 251.847656 91.667969 L 251.671875 91.113281 L 251.554688 90.46875 L 251.4375 88.710938 L 251.320312 87.949219 L 251.113281 87.128906 L 250.910156 86.511719 L 250.617188 85.839844 L 250.234375 85.105469 L 249.855469 84.519531 L 249.503906 84.050781 L 249.121094 83.613281 L 248.769531 83.230469 L 248.476562 82.96875 L 248.066406 82.617188 L 247.539062 82.234375 L 246.984375 81.882812 L 246.191406 81.472656 L 245.460938 81.179688 L 244.816406 80.976562 L 244.171875 80.828125 L 243.703125 80.742188 L 243.117188 80.683594 L 242.558594 80.652344 L 242.207031 80.652344 L 241.621094 80.683594 L 240.917969 80.769531 L 240.097656 80.945312 L 239.335938 81.179688 L 238.691406 81.445312 L 238.195312 81.679688 L 237.492188 82.089844 L 236.992188 82.441406 L 236.582031 82.761719 L 236.230469 83.085938 L 235.996094 83.289062 L 235.792969 83.496094 L 235.585938 83.730469 L 235.265625 84.109375 L 234.882812 84.636719 L 234.53125 85.195312 L 234.179688 85.867188 L 233.945312 86.425781 L 233.742188 87.011719 L 233.625 87.390625 L 233.566406 87.421875 L 233.566406 87.070312 L 233.683594 86.484375 L 233.886719 85.664062 L 234.152344 84.871094 L 234.179688 84.726562 L 234.238281 84.726562 L 234.269531 84.550781 L 234.414062 84.199219 L 234.53125 83.847656 L 234.589844 83.847656 L 234.621094 83.699219 L 234.972656 82.96875 L 235.324219 82.324219 L 235.675781 81.765625 L 236.054688 81.210938 L 236.320312 80.859375 L 236.640625 80.449219 L 236.730469 80.300781 L 236.875 80.183594 L 237.082031 79.949219 L 237.402344 79.597656 L 238.046875 78.953125 L 238.28125 78.75 L 238.632812 78.425781 L 239.042969 78.105469 L 239.425781 77.8125 L 239.921875 77.460938 L 240.597656 77.050781 L 241.035156 76.785156 L 241.503906 76.550781 L 242.382812 76.140625 L 243.320312 75.789062 L 244.316406 75.496094 L 245.253906 75.292969 L 246.367188 75.117188 Z M 247.511719 75.027344 " fill-opacity="1" fill-rule="nonzero"/><g fill="#fff" fill-opacity="1"><g transform="translate(272.212487, 59.900015)"><g><path d="M 5.84375 0 L 3.421875 0 L 3.421875 -9.40625 L 0.328125 -9.40625 L 0.328125 -11.421875 L 8.953125 -11.421875 L 8.953125 -9.40625 L 5.84375 -9.40625 Z M 5.84375 0 "/></g></g></g><g fill="#fff" fill-opacity="1"><g transform="translate(281.075854, 59.900015)"><g><path d="M 8.015625 0 L 1.4375 0 L 1.4375 -11.421875 L 8.015625 -11.421875 L 8.015625 -9.4375 L 3.859375 -9.4375 L 3.859375 -6.9375 L 7.734375 -6.9375 L 7.734375 -4.953125 L 3.859375 -4.953125 L 3.859375 -2 L 8.015625 -2 Z M 8.015625 0 "/></g></g></g><g fill="#fff" fill-opacity="1"><g transform="translate(289.634614, 59.900015)"><g><path d="M 6.296875 -9.578125 C 5.828125 -9.578125 5.414062 -9.484375 5.0625 -9.296875 C 4.707031 -9.117188 4.40625 -8.859375 4.15625 -8.515625 C 3.914062 -8.179688 3.734375 -7.773438 3.609375 -7.296875 C 3.484375 -6.816406 3.421875 -6.28125 3.421875 -5.6875 C 3.421875 -4.875 3.519531 -4.179688 3.71875 -3.609375 C 3.925781 -3.046875 4.238281 -2.613281 4.65625 -2.3125 C 5.082031 -2.007812 5.628906 -1.859375 6.296875 -1.859375 C 6.753906 -1.859375 7.21875 -1.910156 7.6875 -2.015625 C 8.15625 -2.117188 8.660156 -2.269531 9.203125 -2.46875 L 9.203125 -0.4375 C 8.703125 -0.226562 8.207031 -0.078125 7.71875 0.015625 C 7.226562 0.109375 6.675781 0.15625 6.0625 0.15625 C 4.882812 0.15625 3.914062 -0.0859375 3.15625 -0.578125 C 2.40625 -1.066406 1.847656 -1.75 1.484375 -2.625 C 1.117188 -3.5 0.9375 -4.523438 0.9375 -5.703125 C 0.9375 -6.566406 1.050781 -7.359375 1.28125 -8.078125 C 1.519531 -8.796875 1.863281 -9.414062 2.3125 -9.9375 C 2.769531 -10.46875 3.332031 -10.875 4 -11.15625 C 4.664062 -11.445312 5.429688 -11.59375 6.296875 -11.59375 C 6.859375 -11.59375 7.425781 -11.519531 8 -11.375 C 8.570312 -11.226562 9.117188 -11.03125 9.640625 -10.78125 L 8.859375 -8.8125 C 8.429688 -9.019531 8 -9.195312 7.5625 -9.34375 C 7.132812 -9.5 6.710938 -9.578125 6.296875 -9.578125 Z M 6.296875 -9.578125 "/></g></g></g><g fill="#fff" fill-opacity="1"><g transform="translate(299.427446, 59.900015)"><g><path d="M 10.796875 0 L 8.390625 0 L 8.390625 -4.9375 L 3.859375 -4.9375 L 3.859375 0 L 1.4375 0 L 1.4375 -11.421875 L 3.859375 -11.421875 L 3.859375 -6.953125 L 8.390625 -6.953125 L 8.390625 -11.421875 L 10.796875 -11.421875 Z M 10.796875 0 "/></g></g></g></svg>